# xmcd CD database file
#
# Track frame offsets:
#	150
#	11890
#	23839
#	36309
#	50665
#	63756
#	77257
#	90396
#	105273
#	117466
#	130622
#
# Disc length: 1929 seconds
#
# Revision: 0
# Processed by: cddbd v1.5.1PL0 Copyright (c) Steve Scherf et al.
# Submitted via: CDex 1.51
#
DISCID=7d07870b
DTITLE=Various Artist - Night Time Blues
DYEAR=1900
DGENRE=Blues
TTITLE0=Your Gonna Miss Me/ Muddy Waters
TTITLE1=When You Got A good Friend/ Robert Johnson
TTITLE2=Candy Man Blues/ Mississipi John Hurt
TTITLE3=Sally Mae/ John Lee Hooker
TTITLE4=L.A. Blues/ Lightning Hopkins
TTITLE5=Night Time Blues/ Ma Rainey
TTITLE6=Frisco Town/ Memphis Minnie
TTITLE7=Georgia On My Mind/ Billie Holiday
TTITLE8=I Can't Be Satisfied/ Muddy Waters
TTITLE9=Good Morning Blues/ Leadbelly
TTITLE10=Stepfather Blues/ Big Joe Williams
EXTD=
EXTT0=
EXTT1=
EXTT2=
EXTT3=
EXTT4=
EXTT5=
EXTT6=
EXTT7=
EXTT8=
EXTT9=
EXTT10=
PLAYORDER=
